<svg width="615" height="253" viewBox="0 0 615 253" fill="none" xmlns="http://www.w3.org/2000/svg">
<path d="M330 135L334.321 146.679L346 151L334.321 155.321L330 167L325.679 155.321L314 151L325.679 146.679L330 135Z" fill="white"/>
<circle cx="87" cy="96" r="4" fill="white"/>
<path d="M216.185 -174.912C275.65 -211.807 339.67 -228.752 395.092 -226.344C450.517 -223.936 497.287 -202.182 522.379 -161.741C547.471 -121.3 546.192 -69.734 523.736 -19.0048C501.282 31.7217 457.669 81.5581 398.205 118.453C338.74 155.348 274.72 172.293 219.298 169.886C163.873 167.478 117.102 145.724 92.0107 105.283C66.919 64.842 68.1976 13.2756 90.6534 -37.4537C113.108 -88.1802 156.72 -138.017 216.185 -174.912Z" stroke="white"/>
</svg>
