<svg width="418" height="512" viewBox="0 0 418 512" fill="none" xmlns="http://www.w3.org/2000/svg">
<path d="M263.839 372.101C306.001 474.72 315.783 579.265 297.538 665.323C279.293 751.385 233.037 818.906 163.163 847.614C93.2901 876.322 12.925 860.823 -60.5546 812.448C-134.032 764.074 -200.574 682.85 -242.736 580.23C-284.898 477.611 -294.679 373.066 -276.435 287.008C-258.189 200.946 -211.933 133.425 -142.06 104.717C-72.1866 76.0093 8.17852 91.5075 81.6581 139.883C155.135 188.257 221.677 269.481 263.839 372.101Z" stroke="white"/>
<path d="M259 344L262.781 354.584L273 358.5L262.781 362.416L259 373L255.219 362.416L245 358.5L255.219 354.584L259 344Z" fill="white"/>
<circle cx="115" cy="165" r="6" fill="white"/>
</svg>
