<svg width="33" height="32" viewBox="0 0 33 32" fill="none" xmlns="http://www.w3.org/2000/svg">
<g id="icon/icon-delete" opacity="0.6">
<path id="Icons / Action / delete" fill-rule="evenodd" clip-rule="evenodd" d="M10.684 11L11.5 11H21.5L22.315 11L21.168 24H12.5H11.831H9.82353L10 26H23L24.3235 11H25.5V9H24.5H21.084C20.3124 7.2341 18.5503 6 16.5 6C14.4497 6 12.6876 7.2341 11.916 9H8.5H7.5V11H8.67647L9.64706 22H11.6545L10.684 11ZM18.736 9H14.263L14.3967 8.86086C14.9381 8.32845 15.6807 8 16.5 8L16.6775 8.00517C17.4409 8.04981 18.1294 8.38052 18.6352 8.89262L18.736 9ZM15.5 13H13.7V22H15.5V13ZM19.3 13H17.5V22H19.3V13Z" fill="#FF4F6E"/>
</g>
</svg>
