<svg width="50" height="50" viewBox="0 0 50 50" fill="none" xmlns="http://www.w3.org/2000/svg">
<rect x="10" y="9.15125" width="29.9267" height="5.37561" rx="2" fill="#E85A5A"/>
<rect x="21" y="6" width="8" height="5.84615" rx="2" fill="#E85A5A"/>
<path d="M37.8095 15.8245H12.1848C11.0107 15.8245 10.0891 16.8312 10.1926 18.0008L12.3325 42.1764C12.4238 43.2086 13.2885 44.0001 14.3247 44.0001H35.6067C36.641 44.0001 37.5046 43.2115 37.5985 42.1816L39.8012 18.0059C39.908 16.8346 38.9857 15.8245 37.8095 15.8245Z" fill="#E85A5A"/>
<rect x="19.0954" y="21.3854" width="17.0537" height="1.17359" rx="0.586797" transform="rotate(90 19.0954 21.3854)" fill="white"/>
<rect x="25.4034" y="21.3854" width="17.0537" height="1.17359" rx="0.586797" transform="rotate(90 25.4034 21.3854)" fill="white"/>
<rect x="32.1516" y="21.3854" width="17.0537" height="1.17359" rx="0.586797" transform="rotate(90 32.1516 21.3854)" fill="white"/>
</svg>
